<svg xmlns="http://www.w3.org/2000/svg" xmlns:xlink="http://www.w3.org/1999/xlink" width="1906.122" height="2539.938" viewBox="0 0 1906.122 2539.938">
  <defs>
    <radialGradient id="radial-gradient" cx="0.5" cy="0.5" r="0.5" gradientTransform="translate(0)" gradientUnits="objectBoundingBox">
      <stop offset="0" stop-color="#bd13ff"/>
      <stop offset="0.041" stop-color="#a110da"/>
      <stop offset="0.099" stop-color="#800cac"/>
      <stop offset="0.163" stop-color="#610983"/>
      <stop offset="0.232" stop-color="#47075f"/>
      <stop offset="0.305" stop-color="#300441"/>
      <stop offset="0.386" stop-color="#1e0329"/>
      <stop offset="0.477" stop-color="#110117"/>
      <stop offset="0.584" stop-color="#070009"/>
      <stop offset="0.721" stop-color="#010002"/>
      <stop offset="1"/>
    </radialGradient>
    <radialGradient id="radial-gradient-2" cx="0.5" r="0.5" xlink:href="#radial-gradient"/>
    <radialGradient id="radial-gradient-4" cx="0.5" r="0.5" xlink:href="#radial-gradient"/>
    <radialGradient id="radial-gradient-6" cx="0.5" r="0.5" xlink:href="#radial-gradient"/>
    <radialGradient id="radial-gradient-7" cx="0.5" r="0.5" xlink:href="#radial-gradient"/>
    <radialGradient id="radial-gradient-8" cx="0.5" r="0.5" gradientTransform="matrix(1, 0, 0, 1, 0, 0)" xlink:href="#radial-gradient"/>
    <radialGradient id="radial-gradient-9" cx="0.5" r="0.5" xlink:href="#radial-gradient"/>
    <radialGradient id="radial-gradient-10" cx="0.5" r="0.5" xlink:href="#radial-gradient"/>
    <radialGradient id="radial-gradient-11" cx="0.5" r="0.5" xlink:href="#radial-gradient"/>
    <radialGradient id="radial-gradient-12" cx="0.5" r="0.5" xlink:href="#radial-gradient"/>
    <radialGradient id="radial-gradient-14" cx="0.5" r="0.5" xlink:href="#radial-gradient"/>
    <radialGradient id="radial-gradient-15" cx="0.5" r="0.5" gradientTransform="matrix(0.256, 0.967, -0.967, 0.256, 0.855, -0.111)" xlink:href="#radial-gradient"/>
    <radialGradient id="radial-gradient-17" cx="0.5" r="0.5" xlink:href="#radial-gradient"/>
    <radialGradient id="radial-gradient-19" cx="0.5" r="0.5" xlink:href="#radial-gradient"/>
    <radialGradient id="radial-gradient-20" cx="0.5" r="0.5" xlink:href="#radial-gradient"/>
    <radialGradient id="radial-gradient-21" cx="0.5" r="0.5" xlink:href="#radial-gradient"/>
    <radialGradient id="radial-gradient-22" cx="0.5" r="0.5" gradientTransform="matrix(1, 0, 0, 1, 0, 0)" xlink:href="#radial-gradient"/>
    <radialGradient id="radial-gradient-23" cx="0.5" r="0.5" xlink:href="#radial-gradient"/>
    <radialGradient id="radial-gradient-24" cx="0.5" r="0.5" xlink:href="#radial-gradient"/>
    <radialGradient id="radial-gradient-26" cx="0.5" r="0.5" xlink:href="#radial-gradient"/>
    <radialGradient id="radial-gradient-29" cx="0.5" r="0.5" xlink:href="#radial-gradient"/>
    <radialGradient id="radial-gradient-30" cx="0.5" r="0.5" xlink:href="#radial-gradient"/>
    <radialGradient id="radial-gradient-31" cx="0.5" r="0.5" xlink:href="#radial-gradient"/>
    <radialGradient id="radial-gradient-32" cx="0.5" r="0.5" xlink:href="#radial-gradient"/>
    <radialGradient id="radial-gradient-33" cx="0.5" r="0.5" xlink:href="#radial-gradient"/>
    <radialGradient id="radial-gradient-35" cx="0.5" r="0.5" gradientTransform="translate(0.5 -0.207) rotate(45)" xlink:href="#radial-gradient"/>
    <radialGradient id="radial-gradient-36" cx="0.5" r="0.5" gradientTransform="translate(0.5 -0.207) rotate(45)" xlink:href="#radial-gradient"/>
    <radialGradient id="radial-gradient-37" cx="0.5" r="0.5" gradientTransform="matrix(0.229, 0.973, -0.973, 0.229, 0.872, -0.101)" xlink:href="#radial-gradient"/>
    <radialGradient id="radial-gradient-38" cx="0.5" r="0.5" gradientTransform="matrix(0.707, 0.707, -0.707, 0.707, 0.5, -0.207)" xlink:href="#radial-gradient"/>
    <radialGradient id="radial-gradient-39" cx="0.5" r="0.5" gradientTransform="matrix(0.231, 0.973, -0.973, 0.231, 0.871, -0.102)" xlink:href="#radial-gradient"/>
    <radialGradient id="radial-gradient-40" cx="0.5" r="0.5" gradientTransform="translate(0.872 -0.101) rotate(76.769)" xlink:href="#radial-gradient"/>
    <radialGradient id="radial-gradient-41" cx="0.5" r="0.5" gradientTransform="translate(0.5 -0.207) rotate(45)" xlink:href="#radial-gradient"/>
    <radialGradient id="radial-gradient-42" cx="0.5" r="0.5" gradientTransform="matrix(0.707, 0.707, -0.707, 0.707, 0.5, -0.207)" xlink:href="#radial-gradient"/>
    <radialGradient id="radial-gradient-43" cx="0.5" r="0.5" gradientTransform="matrix(0.707, 0.707, -0.707, 0.707, 0.5, -0.207)" xlink:href="#radial-gradient"/>
    <radialGradient id="radial-gradient-44" cx="0.5" r="0.5" gradientTransform="matrix(0.925, 0.381, -0.381, 0.925, 0.228, -0.153)" xlink:href="#radial-gradient"/>
    <radialGradient id="radial-gradient-45" cx="0.5" r="0.5" gradientTransform="matrix(0.707, 0.707, -0.707, 0.707, 0.5, -0.207)" xlink:href="#radial-gradient"/>
  </defs>
  <g id="Group_3659" data-name="Group 3659" transform="translate(35.798 -23.885)" opacity="0.61">
    <g id="Group_3614" data-name="Group 3614" transform="translate(1717.839 398.532)">
      <path id="Path_12038" data-name="Path 12038" d="M861.751,114.533a1.2,1.2,0,1,1-1.2-1.195A1.2,1.2,0,0,1,861.751,114.533Z" transform="translate(-847.463 -101.442)" fill="#ffd0bd" fill-rule="evenodd"/>
      <circle id="Ellipse_309" data-name="Ellipse 309" cx="13.091" cy="13.091" r="13.091" fill="url(#radial-gradient)" style="mix-blend-mode: screen;isolation: isolate"/>
    </g>
    <g id="Group_3615" data-name="Group 3615" transform="translate(800.494 327.084)">
      <path id="Path_12039" data-name="Path 12039" d="M410.339,98.592a1.2,1.2,0,1,1-1.195-1.2A1.2,1.2,0,0,1,410.339,98.592Z" transform="translate(-396.053 -85.499)" fill="#ffd0bd" fill-rule="evenodd"/>
      <path id="Path_12040" data-name="Path 12040" d="M428.276,104.634a13.091,13.091,0,1,1-13.091-13.093A13.092,13.092,0,0,1,428.276,104.634Z" transform="translate(-402.094 -91.541)" fill-rule="evenodd" fill="url(#radial-gradient-2)" style="mix-blend-mode: screen;isolation: isolate"/>
    </g>
    <g id="Group_3616" data-name="Group 3616" transform="translate(706.65 250.011)">
      <path id="Path_12041" data-name="Path 12041" d="M962.534,122.9a1.195,1.195,0,1,1-1.2-1.195A1.2,1.2,0,0,1,962.534,122.9Z" transform="translate(-948.247 -109.805)" fill="#ffd0bd" fill-rule="evenodd"/>
      <circle id="Ellipse_310" data-name="Ellipse 310" cx="13.091" cy="13.091" r="13.091" fill="url(#radial-gradient)" style="mix-blend-mode: screen;isolation: isolate"/>
    </g>
    <g id="Group_3617" data-name="Group 3617" transform="translate(1631.971 166.041)">
      <circle id="Ellipse_311" data-name="Ellipse 311" cx="1.195" cy="1.195" r="1.195" transform="translate(11.896 11.896)" fill="#ffd0bd"/>
      <circle id="Ellipse_312" data-name="Ellipse 312" cx="13.091" cy="13.091" r="13.091" fill="url(#radial-gradient-4)" style="mix-blend-mode: screen;isolation: isolate"/>
    </g>
    <g id="Group_3618" data-name="Group 3618" transform="translate(1668.886 606.22)">
      <circle id="Ellipse_313" data-name="Ellipse 313" cx="1.195" cy="1.195" r="1.195" transform="translate(11.896 11.896)" fill="#ffd0bd"/>
      <circle id="Ellipse_314" data-name="Ellipse 314" cx="13.091" cy="13.091" r="13.091" fill="url(#radial-gradient)" style="mix-blend-mode: screen;isolation: isolate"/>
    </g>
    <g id="Group_3619" data-name="Group 3619" transform="translate(113.561 369.662)">
      <path id="Path_12042" data-name="Path 12042" d="M72.31,108.091a1.2,1.2,0,1,1-1.195-1.195A1.194,1.194,0,0,1,72.31,108.091Z" transform="translate(-58.024 -95)" fill="#ffd0bd" fill-rule="evenodd"/>
      <path id="Path_12043" data-name="Path 12043" d="M90.247,114.133a13.091,13.091,0,1,1-13.091-13.091A13.091,13.091,0,0,1,90.247,114.133Z" transform="translate(-64.065 -101.042)" fill-rule="evenodd" fill="url(#radial-gradient-6)" style="mix-blend-mode: screen;isolation: isolate"/>
    </g>
    <g id="Group_3620" data-name="Group 3620" transform="translate(1830.288 906.484)">
      <path id="Path_12044" data-name="Path 12044" d="M921.447,229.485a1.828,1.828,0,1,1-1.827-1.829A1.827,1.827,0,0,1,921.447,229.485Z" transform="translate(-899.601 -209.467)" fill="#ffd0bd" fill-rule="evenodd"/>
      <circle id="Ellipse_315" data-name="Ellipse 315" cx="20.018" cy="20.018" r="20.018" fill="url(#radial-gradient-7)" style="mix-blend-mode: screen;isolation: isolate"/>
    </g>
    <g id="Group_3621" data-name="Group 3621" transform="translate(1442.121 1141.656)">
      <path id="Path_12045" data-name="Path 12045" d="M730.436,281.4a1.828,1.828,0,1,1-1.829-1.829A1.827,1.827,0,0,1,730.436,281.4Z" transform="translate(-708.589 -261.377)" fill="#ffd0bd" fill-rule="evenodd"/>
      <circle id="Ellipse_316" data-name="Ellipse 316" cx="20.018" cy="20.018" r="20.018" fill="url(#radial-gradient-8)" style="mix-blend-mode: screen;isolation: isolate"/>
    </g>
    <g id="Group_3622" data-name="Group 3622" transform="translate(1321.097 426.444)">
      <path id="Path_12046" data-name="Path 12046" d="M574.926,133.063a1.828,1.828,0,1,1-1.829-1.829A1.827,1.827,0,0,1,574.926,133.063Z" transform="translate(-553.079 -113.044)" fill="#ffd0bd" fill-rule="evenodd"/>
      <circle id="Ellipse_317" data-name="Ellipse 317" cx="20.018" cy="20.018" r="20.018" fill="url(#radial-gradient-9)" style="mix-blend-mode: screen;isolation: isolate"/>
    </g>
    <g id="Group_3623" data-name="Group 3623" transform="translate(843.917 464.33)">
      <path id="Path_12047" data-name="Path 12047" d="M448.9,139.63a3.688,3.688,0,1,1-3.688-3.69A3.689,3.689,0,0,1,448.9,139.63Z" transform="translate(-404.814 -99.228)" fill="#ffd0bd" fill-rule="evenodd"/>
      <circle id="Ellipse_318" data-name="Ellipse 318" cx="40.402" cy="40.402" r="40.402" fill="url(#radial-gradient-10)" style="mix-blend-mode: screen;isolation: isolate"/>
    </g>
    <g id="Group_3624" data-name="Group 3624" transform="translate(16.112 105.788)">
      <path id="Path_12048" data-name="Path 12048" d="M41.555,85.942a3.688,3.688,0,1,1-3.688-3.688A3.689,3.689,0,0,1,41.555,85.942Z" transform="translate(2.535 -45.541)" fill="#ffd0bd" fill-rule="evenodd"/>
      <circle id="Ellipse_319" data-name="Ellipse 319" cx="40.402" cy="40.402" r="40.402" fill="url(#radial-gradient-11)" style="mix-blend-mode: screen;isolation: isolate"/>
    </g>
    <g id="Group_3625" data-name="Group 3625" transform="translate(1617.752 23.885)">
      <path id="Path_12049" data-name="Path 12049" d="M829.7,45.64a3.689,3.689,0,1,1-3.69-3.69A3.69,3.69,0,0,1,829.7,45.64Z" transform="translate(-785.607 -5.238)" fill="#ffd0bd" fill-rule="evenodd"/>
      <circle id="Ellipse_320" data-name="Ellipse 320" cx="40.402" cy="40.402" r="40.402" fill="url(#radial-gradient-12)" style="mix-blend-mode: screen;isolation: isolate"/>
    </g>
    <g id="Group_3626" data-name="Group 3626" transform="translate(575.919 833.114)">
      <path id="Path_12050" data-name="Path 12050" d="M317.029,218.326a3.689,3.689,0,1,1-3.688-3.688A3.688,3.688,0,0,1,317.029,218.326Z" transform="translate(-272.938 -177.924)" fill="#ffd0bd" fill-rule="evenodd"/>
      <circle id="Ellipse_321" data-name="Ellipse 321" cx="40.402" cy="40.402" r="40.402" fill="url(#radial-gradient-8)" style="mix-blend-mode: screen;isolation: isolate"/>
    </g>
    <g id="Group_3627" data-name="Group 3627" transform="translate(123.828 1208.525)">
      <path id="Path_12051" data-name="Path 12051" d="M94.562,298.439a3.689,3.689,0,1,1-3.69-3.69A3.69,3.69,0,0,1,94.562,298.439Z" transform="translate(-50.47 -258.036)" fill="#ffd0bd" fill-rule="evenodd"/>
      <circle id="Ellipse_322" data-name="Ellipse 322" cx="40.402" cy="40.402" r="40.402" fill="url(#radial-gradient-14)" style="mix-blend-mode: screen;isolation: isolate"/>
    </g>
    <g id="Group_3628" data-name="Group 3628" transform="translate(983.346 325.168)">
      <path id="Path_12052" data-name="Path 12052" d="M611.321,142.827a1.66,1.66,0,1,1-1.66-1.66A1.661,1.661,0,0,1,611.321,142.827Z" transform="translate(-587.414 -120.581)" fill="#ffd0bd" fill-rule="evenodd"/>
      <circle id="Ellipse_323" data-name="Ellipse 323" cx="18.191" cy="18.191" r="18.191" transform="translate(0 35.165) rotate(-75.141)" fill="url(#radial-gradient-15)" style="mix-blend-mode: screen;isolation: isolate"/>
    </g>
    <g id="Group_3629" data-name="Group 3629" transform="translate(209.158 385.911)">
      <path id="Path_12053" data-name="Path 12053" d="M115.043,108.592a1.026,1.026,0,1,1-1.026-1.024A1.026,1.026,0,0,1,115.043,108.592Z" transform="translate(-109.162 -103.739)" fill="#ffd0bd" fill-rule="evenodd"/>
      <path id="Path_12054" data-name="Path 12054" d="M120.815,110.537a4.854,4.854,0,1,1-4.853-4.853A4.853,4.853,0,0,1,120.815,110.537Z" transform="translate(-111.107 -105.684)" fill-rule="evenodd" fill="url(#radial-gradient-8)" style="mix-blend-mode: screen;isolation: isolate"/>
    </g>
    <g id="Group_3630" data-name="Group 3630" transform="translate(1066.006 1559.442)">
      <path id="Path_12055" data-name="Path 12055" d="M541.113,351.625a1.026,1.026,0,1,1-1.026-1.026A1.026,1.026,0,0,1,541.113,351.625Z" transform="translate(-535.232 -346.77)" fill="#ffd0bd" fill-rule="evenodd"/>
      <path id="Path_12056" data-name="Path 12056" d="M546.885,353.57a4.854,4.854,0,1,1-4.853-4.855A4.852,4.852,0,0,1,546.885,353.57Z" transform="translate(-537.177 -348.715)" fill-rule="evenodd" fill="url(#radial-gradient-17)" style="mix-blend-mode: screen;isolation: isolate"/>
    </g>
    <g id="Group_3631" data-name="Group 3631" transform="translate(930.391 1294.158)">
      <path id="Path_12057" data-name="Path 12057" d="M469.95,313.811a1.026,1.026,0,1,1-1.026-1.026A1.027,1.027,0,0,1,469.95,313.811Z" transform="translate(-464.07 -308.957)" fill="#ffd0bd" fill-rule="evenodd"/>
      <circle id="Ellipse_324" data-name="Ellipse 324" cx="4.854" cy="4.854" r="4.854" fill="url(#radial-gradient-8)" style="mix-blend-mode: screen;isolation: isolate"/>
    </g>
    <g id="Group_3632" data-name="Group 3632" transform="translate(463.499 1564.296)">
      <path id="Path_12058" data-name="Path 12058" d="M240.2,364.689a1.025,1.025,0,1,1-1.024-1.024A1.026,1.026,0,0,1,240.2,364.689Z" transform="translate(-234.319 -359.836)" fill="#ffd0bd" fill-rule="evenodd"/>
      <path id="Path_12059" data-name="Path 12059" d="M245.972,366.634a4.854,4.854,0,1,1-4.853-4.853A4.854,4.854,0,0,1,245.972,366.634Z" transform="translate(-236.264 -361.781)" fill-rule="evenodd" fill="url(#radial-gradient-19)" style="mix-blend-mode: screen;isolation: isolate"/>
    </g>
    <g id="Group_3633" data-name="Group 3633" transform="translate(359.36 1509.157)">
      <path id="Path_12060" data-name="Path 12060" d="M188.955,337.557a1.026,1.026,0,1,1-1.026-1.026A1.026,1.026,0,0,1,188.955,337.557Z" transform="translate(-183.074 -332.704)" fill="#ffd0bd" fill-rule="evenodd"/>
      <path id="Path_12061" data-name="Path 12061" d="M194.729,339.5a4.855,4.855,0,1,1-4.855-4.853A4.856,4.856,0,0,1,194.729,339.5Z" transform="translate(-185.019 -334.648)" fill-rule="evenodd" fill="url(#radial-gradient-20)" style="mix-blend-mode: screen;isolation: isolate"/>
    </g>
    <g id="Group_3634" data-name="Group 3634" transform="translate(330.044 1228.005)">
      <path id="Path_12062" data-name="Path 12062" d="M174.529,298.863a1.026,1.026,0,1,1-1.026-1.026A1.026,1.026,0,0,1,174.529,298.863Z" transform="translate(-168.648 -294.01)" fill="#ffd0bd" fill-rule="evenodd"/>
      <path id="Path_12063" data-name="Path 12063" d="M180.3,300.807a4.855,4.855,0,1,1-4.855-4.853A4.855,4.855,0,0,1,180.3,300.807Z" transform="translate(-170.593 -295.954)" fill-rule="evenodd" fill="url(#radial-gradient-21)" style="mix-blend-mode: screen;isolation: isolate"/>
    </g>
    <g id="Group_3635" data-name="Group 3635" transform="translate(150.833 60.531)">
      <path id="Path_12064" data-name="Path 12064" d="M86.34,44.828A1.025,1.025,0,1,1,85.314,43.8,1.026,1.026,0,0,1,86.34,44.828Z" transform="translate(-80.461 -39.973)" fill="#ffd0bd" fill-rule="evenodd"/>
      <path id="Path_12065" data-name="Path 12065" d="M92.114,46.773a4.854,4.854,0,1,1-4.855-4.855A4.853,4.853,0,0,1,92.114,46.773Z" transform="translate(-82.406 -41.918)" fill-rule="evenodd" fill="url(#radial-gradient-22)" style="mix-blend-mode: screen;isolation: isolate"/>
    </g>
    <g id="Group_3636" data-name="Group 3636" transform="translate(1183.04 40.586)">
      <path id="Path_12066" data-name="Path 12066" d="M594.273,35.012a1.025,1.025,0,1,1-1.026-1.026A1.026,1.026,0,0,1,594.273,35.012Z" transform="translate(-588.394 -30.159)" fill="#ffd0bd" fill-rule="evenodd"/>
      <path id="Path_12067" data-name="Path 12067" d="M600.047,36.956a4.854,4.854,0,1,1-4.855-4.853A4.855,4.855,0,0,1,600.047,36.956Z" transform="translate(-590.339 -32.103)" fill-rule="evenodd" fill="url(#radial-gradient-23)" style="mix-blend-mode: screen;isolation: isolate"/>
    </g>
    <g id="Group_3637" data-name="Group 3637" transform="translate(902.6 1602.462)">
      <path id="Path_12068" data-name="Path 12068" d="M456.275,383.472a1.026,1.026,0,1,1-1.026-1.026A1.026,1.026,0,0,1,456.275,383.472Z" transform="translate(-450.394 -378.617)" fill="#ffd0bd" fill-rule="evenodd"/>
      <path id="Path_12069" data-name="Path 12069" d="M462.047,385.417a4.854,4.854,0,1,1-4.853-4.855A4.852,4.852,0,0,1,462.047,385.417Z" transform="translate(-452.339 -380.562)" fill-rule="evenodd" fill="url(#radial-gradient-24)" style="mix-blend-mode: screen;isolation: isolate"/>
    </g>
    <g id="Group_3638" data-name="Group 3638" transform="translate(616.322 653.499)">
      <path id="Path_12070" data-name="Path 12070" d="M318.949,170.743A1.951,1.951,0,1,1,317,168.792,1.951,1.951,0,0,1,318.949,170.743Z" transform="translate(-307.77 -161.515)" fill="#ffd0bd" fill-rule="evenodd"/>
      <path id="Path_12071" data-name="Path 12071" d="M329.924,174.439a9.229,9.229,0,1,1-9.23-9.228A9.23,9.23,0,0,1,329.924,174.439Z" transform="translate(-311.466 -165.211)" fill-rule="evenodd" fill="url(#radial-gradient-8)" style="mix-blend-mode: screen;isolation: isolate"/>
    </g>
    <g id="Group_3639" data-name="Group 3639" transform="translate(1485.206 1198.26)">
      <path id="Path_12072" data-name="Path 12072" d="M746.514,293.023a1.951,1.951,0,1,1-1.951-1.951A1.951,1.951,0,0,1,746.514,293.023Z" transform="translate(-735.333 -283.795)" fill="#ffd0bd" fill-rule="evenodd"/>
      <path id="Path_12073" data-name="Path 12073" d="M757.488,296.719a9.229,9.229,0,1,1-9.228-9.228A9.23,9.23,0,0,1,757.488,296.719Z" transform="translate(-739.03 -287.491)" fill-rule="evenodd" fill="url(#radial-gradient-26)" style="mix-blend-mode: screen;isolation: isolate"/>
    </g>
    <g id="Group_3640" data-name="Group 3640" transform="translate(1643.849 1238.587)">
      <path id="Path_12074" data-name="Path 12074" d="M824.579,302.076a1.951,1.951,0,1,1-1.951-1.951A1.951,1.951,0,0,1,824.579,302.076Z" transform="translate(-813.4 -292.846)" fill="#ffd0bd" fill-rule="evenodd"/>
      <path id="Path_12075" data-name="Path 12075" d="M835.554,305.773a9.229,9.229,0,1,1-9.23-9.23A9.23,9.23,0,0,1,835.554,305.773Z" transform="translate(-817.096 -296.543)" fill-rule="evenodd" fill="url(#radial-gradient-8)" style="mix-blend-mode: screen;isolation: isolate"/>
    </g>
    <g id="Group_3641" data-name="Group 3641" transform="translate(708.447 1151.01)">
      <path id="Path_12076" data-name="Path 12076" d="M364.283,282.418a1.951,1.951,0,1,1-1.951-1.951A1.951,1.951,0,0,1,364.283,282.418Z" transform="translate(-353.102 -273.188)" fill="#ffd0bd" fill-rule="evenodd"/>
      <path id="Path_12077" data-name="Path 12077" d="M375.257,286.115a9.229,9.229,0,1,1-9.228-9.23A9.228,9.228,0,0,1,375.257,286.115Z" transform="translate(-356.799 -276.885)" fill-rule="evenodd" fill="url(#radial-gradient-8)" style="mix-blend-mode: screen;isolation: isolate"/>
    </g>
    <g id="Group_3642" data-name="Group 3642" transform="translate(177.434 596.813)">
      <path id="Path_12078" data-name="Path 12078" d="M99.431,156.245a1.026,1.026,0,1,1-1.026-1.024A1.026,1.026,0,0,1,99.431,156.245Z" transform="translate(-93.552 -151.392)" fill="#ffd0bd" fill-rule="evenodd"/>
      <path id="Path_12079" data-name="Path 12079" d="M105.2,158.19a4.854,4.854,0,1,1-4.855-4.853A4.856,4.856,0,0,1,105.2,158.19Z" transform="translate(-95.496 -153.337)" fill-rule="evenodd" fill="url(#radial-gradient-29)" style="mix-blend-mode: screen;isolation: isolate"/>
    </g>
    <g id="Group_3643" data-name="Group 3643" transform="translate(1620.169 535.998)">
      <circle id="Ellipse_325" data-name="Ellipse 325" cx="1.026" cy="1.026" r="1.026" transform="translate(3.828 3.828)" fill="#ffd0bd"/>
      <circle id="Ellipse_326" data-name="Ellipse 326" cx="4.854" cy="4.854" r="4.854" fill="url(#radial-gradient-30)" style="mix-blend-mode: screen;isolation: isolate"/>
    </g>
    <g id="Group_3644" data-name="Group 3644" transform="translate(1828.551 1085.159)">
      <path id="Path_12080" data-name="Path 12080" d="M911.92,266.588a1.026,1.026,0,1,1-1.026-1.026A1.026,1.026,0,0,1,911.92,266.588Z" transform="translate(-906.041 -261.733)" fill="#ffd0bd" fill-rule="evenodd"/>
      <path id="Path_12081" data-name="Path 12081" d="M917.693,268.533a4.854,4.854,0,1,1-4.855-4.855A4.854,4.854,0,0,1,917.693,268.533Z" transform="translate(-907.985 -263.678)" fill-rule="evenodd" fill="url(#radial-gradient-31)" style="mix-blend-mode: screen;isolation: isolate"/>
    </g>
    <g id="Group_3645" data-name="Group 3645" transform="translate(1437.429 855.009)">
      <path id="Path_12082" data-name="Path 12082" d="M719.454,214.584a1.025,1.025,0,1,1-1.026-1.024A1.026,1.026,0,0,1,719.454,214.584Z" transform="translate(-713.575 -209.731)" fill="#ffd0bd" fill-rule="evenodd"/>
      <path id="Path_12083" data-name="Path 12083" d="M725.227,216.529a4.854,4.854,0,1,1-4.855-4.853A4.853,4.853,0,0,1,725.227,216.529Z" transform="translate(-715.52 -211.676)" fill-rule="evenodd" fill="url(#radial-gradient-32)" style="mix-blend-mode: screen;isolation: isolate"/>
    </g>
    <g id="Group_3646" data-name="Group 3646" transform="translate(280.309 1058.688)">
      <path id="Path_12084" data-name="Path 12084" d="M150.055,260.606a1.026,1.026,0,1,1-1.026-1.026A1.026,1.026,0,0,1,150.055,260.606Z" transform="translate(-144.174 -255.753)" fill="#ffd0bd" fill-rule="evenodd"/>
      <path id="Path_12085" data-name="Path 12085" d="M155.827,262.55a4.854,4.854,0,1,1-4.853-4.853A4.854,4.854,0,0,1,155.827,262.55Z" transform="translate(-146.119 -257.697)" fill-rule="evenodd" fill="url(#radial-gradient-33)" style="mix-blend-mode: screen;isolation: isolate"/>
    </g>
    <g id="Group_3647" data-name="Group 3647" transform="translate(448.654 850.406)">
      <path id="Path_12086" data-name="Path 12086" d="M232.893,213.546a1.025,1.025,0,1,1-1.024-1.026A1.025,1.025,0,0,1,232.893,213.546Z" transform="translate(-227.014 -208.691)" fill="#ffd0bd" fill-rule="evenodd"/>
      <path id="Path_12087" data-name="Path 12087" d="M238.667,215.491a4.854,4.854,0,1,1-4.853-4.855A4.852,4.852,0,0,1,238.667,215.491Z" transform="translate(-228.959 -210.636)" fill-rule="evenodd" fill="url(#radial-gradient-8)" style="mix-blend-mode: screen;isolation: isolate"/>
    </g>
    <g id="Group_3648" data-name="Group 3648" transform="translate(1239.297 1581.59)">
      <path id="Path_12088" data-name="Path 12088" d="M674.627,327.657a1.661,1.661,0,1,1-1.66-1.662A1.661,1.661,0,0,1,674.627,327.657Z" transform="translate(-647.24 -301.931)" fill="#ffd0bd" fill-rule="evenodd"/>
      <circle id="Ellipse_327" data-name="Ellipse 327" cx="18.191" cy="18.191" r="18.191" transform="translate(0 25.725) rotate(-45)" fill="url(#radial-gradient-35)" style="mix-blend-mode: screen;isolation: isolate"/>
    </g>
    <g id="Group_3649" data-name="Group 3649" transform="translate(1460.269 1616.902)">
      <path id="Path_12089" data-name="Path 12089" d="M802.449,349.607a1.661,1.661,0,1,1-1.66-1.662A1.661,1.661,0,0,1,802.449,349.607Z" transform="translate(-775.063 -323.881)" fill="#ffd0bd" fill-rule="evenodd"/>
      <circle id="Ellipse_328" data-name="Ellipse 328" cx="18.191" cy="18.191" r="18.191" transform="translate(0 25.725) rotate(-45)" fill="url(#radial-gradient-36)" style="mix-blend-mode: screen;isolation: isolate"/>
    </g>
    <g id="Group_3650" data-name="Group 3650" transform="translate(1265.517 597.352)">
      <path id="Path_12090" data-name="Path 12090" d="M644.19,161.7a1.66,1.66,0,1,1-1.66-1.66A1.661,1.661,0,0,1,644.19,161.7Z" transform="translate(-620.659 -139.831)" fill="#ffd0bd" fill-rule="evenodd"/>
      <circle id="Ellipse_329" data-name="Ellipse 329" cx="18.191" cy="18.191" r="18.191" transform="translate(0 35.415) rotate(-76.769)" fill="url(#radial-gradient-37)" style="mix-blend-mode: screen;isolation: isolate"/>
    </g>
    <g id="Group_3651" data-name="Group 3651" transform="translate(1490.538 374.993)">
      <path id="Path_12091" data-name="Path 12091" d="M756.818,114.181a1.661,1.661,0,1,1-1.66-1.66A1.661,1.661,0,0,1,756.818,114.181Z" transform="translate(-729.432 -88.456)" fill="#ffd0bd" fill-rule="evenodd"/>
      <circle id="Ellipse_330" data-name="Ellipse 330" cx="18.19" cy="18.19" r="18.19" transform="translate(0 25.725) rotate(-45)" fill="url(#radial-gradient-38)" style="mix-blend-mode: screen;isolation: isolate"/>
    </g>
    <g id="Group_3652" data-name="Group 3652" transform="translate(894.943 166.041)">
      <path id="Path_12092" data-name="Path 12092" d="M944.091,55.264a1.66,1.66,0,1,1-1.66-1.662A1.66,1.66,0,0,1,944.091,55.264Z" transform="translate(-920.536 -33.368)" fill="#ffd0bd" fill-rule="evenodd"/>
      <circle id="Ellipse_331" data-name="Ellipse 331" cx="18.19" cy="18.19" r="18.19" transform="translate(0 35.4) rotate(-76.665)" fill="url(#radial-gradient-39)" style="mix-blend-mode: screen;isolation: isolate"/>
    </g>
    <g id="Group_3653" data-name="Group 3653" transform="translate(610.097 1590.299)">
      <path id="Path_12093" data-name="Path 12093" d="M377.339,349.607a1.661,1.661,0,1,1-1.66-1.662A1.661,1.661,0,0,1,377.339,349.607Z" transform="translate(-353.807 -327.735)" fill="#ffd0bd" fill-rule="evenodd"/>
      <circle id="Ellipse_332" data-name="Ellipse 332" cx="18.191" cy="18.191" r="18.191" transform="translate(0 35.415) rotate(-76.769)" fill="url(#radial-gradient-40)" style="mix-blend-mode: screen;isolation: isolate"/>
    </g>
    <g id="Group_3654" data-name="Group 3654" transform="translate(191.998 1548.278)">
      <path id="Path_12094" data-name="Path 12094" d="M494.272,350.423a1.661,1.661,0,1,1-1.662-1.66A1.661,1.661,0,0,1,494.272,350.423Z" transform="translate(-466.885 -324.698)" fill="#ffd0bd" fill-rule="evenodd"/>
      <circle id="Ellipse_333" data-name="Ellipse 333" cx="18.19" cy="18.19" r="18.19" transform="translate(0 25.725) rotate(-45)" fill="url(#radial-gradient-41)" style="mix-blend-mode: screen;isolation: isolate"/>
    </g>
    <g id="Group_3655" data-name="Group 3655" transform="translate(1342.823 1227.903)">
      <path id="Path_12095" data-name="Path 12095" d="M684.13,300.729a1.661,1.661,0,1,1-1.66-1.66A1.661,1.661,0,0,1,684.13,300.729Z" transform="translate(-656.743 -275.005)" fill="#ffd0bd" fill-rule="evenodd"/>
      <circle id="Ellipse_334" data-name="Ellipse 334" cx="18.19" cy="18.19" r="18.19" transform="translate(0 25.725) rotate(-45)" fill="url(#radial-gradient-42)" style="mix-blend-mode: screen;isolation: isolate"/>
    </g>
    <g id="Group_3656" data-name="Group 3656" transform="translate(613.641 61.872)">
      <path id="Path_12096" data-name="Path 12096" d="M325.311,56.08a1.661,1.661,0,1,1-1.662-1.66A1.661,1.661,0,0,1,325.311,56.08Z" transform="translate(-297.924 -30.355)" fill="#ffd0bd" fill-rule="evenodd"/>
      <circle id="Ellipse_335" data-name="Ellipse 335" cx="18.191" cy="18.191" r="18.191" transform="translate(0 25.725) rotate(-45)" fill="url(#radial-gradient-43)" style="mix-blend-mode: screen;isolation: isolate"/>
    </g>
    <g id="Group_3657" data-name="Group 3657" transform="translate(453.672 808.151)">
      <path id="Path_12097" data-name="Path 12097" d="M245.617,208.5a1.66,1.66,0,1,1-1.66-1.662A1.661,1.661,0,0,1,245.617,208.5Z" transform="translate(-220.211 -184.754)" fill="#ffd0bd" fill-rule="evenodd"/>
      <circle id="Ellipse_336" data-name="Ellipse 336" cx="18.19" cy="18.19" r="18.19" transform="matrix(0.925, -0.381, 0.381, 0.925, 0, 13.847)" fill="url(#radial-gradient-44)" style="mix-blend-mode: screen;isolation: isolate"/>
    </g>
    <g id="Group_3658" data-name="Group 3658" transform="translate(1257.808 224.743)">
      <path id="Path_12098" data-name="Path 12098" d="M589.342,115.359a1.66,1.66,0,1,1-1.66-1.662A1.661,1.661,0,0,1,589.342,115.359Z" transform="translate(-561.957 -89.633)" fill="#ffd0bd" fill-rule="evenodd"/>
      <circle id="Ellipse_337" data-name="Ellipse 337" cx="18.191" cy="18.191" r="18.191" transform="translate(0 25.725) rotate(-45)" fill="url(#radial-gradient-45)" style="mix-blend-mode: screen;isolation: isolate"/>
    </g>
    <g id="Group_4302" data-name="Group 4302" transform="translate(1238.839 2167.532)">
      <path id="Path_12038-2" data-name="Path 12038" d="M861.751,114.533a1.2,1.2,0,1,1-1.2-1.195A1.2,1.2,0,0,1,861.751,114.533Z" transform="translate(-847.463 -101.442)" fill="#ffd0bd" fill-rule="evenodd"/>
      <circle id="Ellipse_309-2" data-name="Ellipse 309" cx="13.091" cy="13.091" r="13.091" fill="url(#radial-gradient)" style="mix-blend-mode: screen;isolation: isolate"/>
    </g>
    <g id="Group_4303" data-name="Group 4303" transform="translate(1189.886 2375.22)">
      <circle id="Ellipse_313-2" data-name="Ellipse 313" cx="1.195" cy="1.195" r="1.195" transform="translate(11.896 11.896)" fill="#ffd0bd"/>
      <circle id="Ellipse_314-2" data-name="Ellipse 314" cx="13.091" cy="13.091" r="13.091" fill="url(#radial-gradient)" style="mix-blend-mode: screen;isolation: isolate"/>
    </g>
    <g id="Group_4304" data-name="Group 4304" transform="translate(320.097 1947.66)">
      <path id="Path_12046-2" data-name="Path 12046" d="M574.926,133.063a1.828,1.828,0,1,1-1.829-1.829A1.827,1.827,0,0,1,574.926,133.063Z" transform="translate(-553.079 -113.044)" fill="#ffd0bd" fill-rule="evenodd"/>
      <circle id="Ellipse_317-2" data-name="Ellipse 317" cx="20.018" cy="20.018" r="20.018" fill="url(#radial-gradient-9)" style="mix-blend-mode: screen;isolation: isolate"/>
    </g>
    <g id="Group_4305" data-name="Group 4305" transform="translate(719.346 2280.048)">
      <path id="Path_12052-2" data-name="Path 12052" d="M611.321,142.827a1.66,1.66,0,1,1-1.66-1.66A1.661,1.661,0,0,1,611.321,142.827Z" transform="translate(-587.414 -120.581)" fill="#ffd0bd" fill-rule="evenodd"/>
      <circle id="Ellipse_323-2" data-name="Ellipse 323" cx="18.191" cy="18.191" r="18.191" transform="translate(0 35.165) rotate(-75.141)" fill="url(#radial-gradient-15)" style="mix-blend-mode: screen;isolation: isolate"/>
    </g>
    <g id="Group_4306" data-name="Group 4306" transform="translate(1180.179 2280.048)">
      <circle id="Ellipse_325-2" data-name="Ellipse 325" cx="1.026" cy="1.026" r="1.026" transform="translate(3.828 3.828)" fill="#ffd0bd"/>
      <circle id="Ellipse_326-2" data-name="Ellipse 326" cx="4.854" cy="4.854" r="4.854" fill="url(#radial-gradient-30)" style="mix-blend-mode: screen;isolation: isolate"/>
    </g>
    <g id="Group_4307" data-name="Group 4307" transform="translate(993.521 1854.353)">
      <path id="Path_12090-2" data-name="Path 12090" d="M644.19,161.7a1.66,1.66,0,1,1-1.66-1.66A1.661,1.661,0,0,1,644.19,161.7Z" transform="translate(-620.659 -139.831)" fill="#ffd0bd" fill-rule="evenodd"/>
      <circle id="Ellipse_329-2" data-name="Ellipse 329" cx="18.191" cy="18.191" r="18.191" transform="translate(0 35.415) rotate(-76.769)" fill="url(#radial-gradient-37)" style="mix-blend-mode: screen;isolation: isolate"/>
    </g>
    <g id="Group_4308" data-name="Group 4308" transform="translate(886.583 2212.58)">
      <path id="Path_12091-2" data-name="Path 12091" d="M756.818,114.181a1.661,1.661,0,1,1-1.66-1.66A1.661,1.661,0,0,1,756.818,114.181Z" transform="translate(-729.432 -88.456)" fill="#ffd0bd" fill-rule="evenodd"/>
      <circle id="Ellipse_330-2" data-name="Ellipse 330" cx="18.19" cy="18.19" r="18.19" transform="translate(0 25.725) rotate(-45)" fill="url(#radial-gradient-38)" style="mix-blend-mode: screen;isolation: isolate"/>
    </g>
    <g id="Group_4309" data-name="Group 4309" transform="translate(944.202 2512.372)">
      <path id="Path_12098-2" data-name="Path 12098" d="M589.342,115.359a1.66,1.66,0,1,1-1.66-1.662A1.661,1.661,0,0,1,589.342,115.359Z" transform="translate(-561.957 -89.633)" fill="#ffd0bd" fill-rule="evenodd"/>
      <circle id="Ellipse_337-2" data-name="Ellipse 337" cx="18.191" cy="18.191" r="18.191" transform="translate(0 25.725) rotate(-45)" fill="url(#radial-gradient-45)" style="mix-blend-mode: screen;isolation: isolate"/>
    </g>
    <g id="Group_4321" data-name="Group 4321" transform="translate(763.839 1777.353)">
      <path id="Path_12090-3" data-name="Path 12090" d="M644.19,161.7a1.66,1.66,0,1,1-1.66-1.66A1.661,1.661,0,0,1,644.19,161.7Z" transform="translate(-620.659 -139.831)" fill="#ffd0bd" fill-rule="evenodd"/>
      <circle id="Ellipse_329-3" data-name="Ellipse 329" cx="18.191" cy="18.191" r="18.191" transform="translate(0 35.415) rotate(-76.769)" fill="url(#radial-gradient-37)" style="mix-blend-mode: screen;isolation: isolate"/>
    </g>
    <g id="Group_4322" data-name="Group 4322" transform="translate(1305.538 2264.03)">
      <path id="Path_12091-3" data-name="Path 12091" d="M756.818,114.181a1.661,1.661,0,1,1-1.66-1.66A1.661,1.661,0,0,1,756.818,114.181Z" transform="translate(-729.432 -88.456)" fill="#ffd0bd" fill-rule="evenodd"/>
      <circle id="Ellipse_330-3" data-name="Ellipse 330" cx="18.19" cy="18.19" r="18.19" transform="translate(0 25.725) rotate(-45)" fill="url(#radial-gradient-38)" style="mix-blend-mode: screen;isolation: isolate"/>
    </g>
    <g id="Group_4323" data-name="Group 4323" transform="translate(-35.798 2349.494)">
      <path id="Path_12098-3" data-name="Path 12098" d="M589.342,115.359a1.66,1.66,0,1,1-1.66-1.662A1.661,1.661,0,0,1,589.342,115.359Z" transform="translate(-561.957 -89.633)" fill="#ffd0bd" fill-rule="evenodd"/>
      <circle id="Ellipse_337-3" data-name="Ellipse 337" cx="18.191" cy="18.191" r="18.191" transform="translate(0 25.725) rotate(-45)" fill="url(#radial-gradient-45)" style="mix-blend-mode: screen;isolation: isolate"/>
    </g>
    <g id="Group_4324" data-name="Group 4324" transform="translate(8.37 1668.353)">
      <path id="Path_12090-4" data-name="Path 12090" d="M644.19,161.7a1.66,1.66,0,1,1-1.66-1.66A1.661,1.661,0,0,1,644.19,161.7Z" transform="translate(-620.659 -139.831)" fill="#ffd0bd" fill-rule="evenodd"/>
      <circle id="Ellipse_329-4" data-name="Ellipse 329" cx="18.191" cy="18.191" r="18.191" transform="translate(0 35.415) rotate(-76.769)" fill="url(#radial-gradient-37)" style="mix-blend-mode: screen;isolation: isolate"/>
    </g>
    <g id="Group_4325" data-name="Group 4325" transform="translate(1737.521 2280.799)">
      <path id="Path_12090-5" data-name="Path 12090" d="M644.19,161.7a1.66,1.66,0,1,1-1.66-1.66A1.661,1.661,0,0,1,644.19,161.7Z" transform="translate(-620.659 -139.831)" fill="#ffd0bd" fill-rule="evenodd"/>
      <circle id="Ellipse_329-5" data-name="Ellipse 329" cx="18.191" cy="18.191" r="18.191" transform="translate(0 35.415) rotate(-76.769)" fill="url(#radial-gradient-37)" style="mix-blend-mode: screen;isolation: isolate"/>
    </g>
    <g id="Group_4326" data-name="Group 4326" transform="translate(1616.583 1648.082)">
      <path id="Path_12091-4" data-name="Path 12091" d="M756.818,114.181a1.661,1.661,0,1,1-1.66-1.66A1.661,1.661,0,0,1,756.818,114.181Z" transform="translate(-729.432 -88.456)" fill="#ffd0bd" fill-rule="evenodd"/>
      <circle id="Ellipse_330-4" data-name="Ellipse 330" cx="18.19" cy="18.19" r="18.19" transform="translate(0 25.725) rotate(-45)" fill="url(#radial-gradient-38)" style="mix-blend-mode: screen;isolation: isolate"/>
    </g>
    <g id="Group_4327" data-name="Group 4327" transform="translate(785.71 1898.095)">
      <path id="Path_12091-5" data-name="Path 12091" d="M756.818,114.181a1.661,1.661,0,1,1-1.66-1.66A1.661,1.661,0,0,1,756.818,114.181Z" transform="translate(-729.432 -88.456)" fill="#ffd0bd" fill-rule="evenodd"/>
      <circle id="Ellipse_330-5" data-name="Ellipse 330" cx="18.19" cy="18.19" r="18.19" transform="translate(0 25.725) rotate(-45)" fill="url(#radial-gradient-38)" style="mix-blend-mode: screen;isolation: isolate"/>
    </g>
  </g>
</svg>
