<svg xmlns="http://www.w3.org/2000/svg" width="1920" height="226.228" viewBox="0 0 1920 226.228">
  <g id="Path_15966" data-name="Path 15966" transform="translate(0 89.4)" fill="#2f2e2e">
    <path d="M 805.9521484375 136.3282623291016 C 800.33642578125 136.3280181884766 793.9847412109375 135.8801574707031 786.5343017578125 134.9589691162109 C 779.8826293945313 134.1365966796875 772.4978637695313 132.9525451660156 763.9576416015625 131.3389739990234 C 748.0733032226563 128.3380126953125 730.4188232421875 124.2484970092773 713.345703125 120.2934951782227 C 695.7552490234375 116.2189712524414 677.5657348632813 112.0054016113281 660.932373046875 108.8811111450195 C 651.9674072265625 107.1970672607422 644.1812133789063 105.9601593017578 637.1292724609375 105.0992126464844 C 629.1981201171875 104.1311111450195 622.3959350585938 103.660400390625 616.3340454101563 103.660400390625 C 615.3323974609375 103.660400390625 614.3404541015625 103.6737365722656 613.3861694335938 103.7004013061523 C 600.2097778320313 104.0668258666992 586.6871337890625 104.2527847290039 573.1940307617188 104.2527847290039 C 491.5952453613281 104.2527847290039 415.8907165527344 97.65230560302734 335.740966796875 90.66445159912109 C 287.9185791015625 86.49516296386719 238.4680938720703 82.18373107910156 186.0749969482422 79.17707061767578 C 43.04879379272461 70.96949768066406 4.977792263031006 68.78466796875 0.5 68.52768707275391 L 0.5 -88.00686645507813 C 1.802199244499207 -86.46343994140625 4.518002033233643 -83.36650848388672 8.584047317504883 -79.32626342773438 C 14.01428604125977 -73.93031311035156 23.04119110107422 -65.68983459472656 35.20809555053711 -57.07483673095703 C 48.88214111328125 -47.39269638061523 63.65523910522461 -39.2193603515625 79.11714172363281 -32.7815055847168 C 88.29762268066406 -28.9591236114502 97.82643127441406 -25.7141227722168 107.4385681152344 -23.13674163818359 C 118.0116653442383 -20.30150413513184 128.9471435546875 -18.20436096191406 139.9411926269531 -16.90340995788574 C 148.4842834472656 -15.89245700836182 157.3421478271484 -15.38007545471191 166.2685699462891 -15.38031387329102 C 183.6742858886719 -15.38126659393311 202.1102447509766 -17.29364776611328 222.6300048828125 -21.22650527954102 C 240.6849975585938 -24.68721961975098 257.845947265625 -29.18912315368652 274.4416809082031 -33.54293441772461 C 288.1849975585938 -37.14841079711914 301.1659545898438 -40.55364608764648 313.5985717773438 -43.08626556396484 C 327.5473937988281 -45.92769622802734 338.7602233886719 -47.25126647949219 348.8861999511719 -47.25126647949219 C 355.7900085449219 -47.25126647949219 362.0176086425781 -46.6324577331543 367.9249877929688 -45.35983657836914 C 372.529052734375 -44.3679313659668 376.1547546386719 -43.05459976196289 378.7007141113281 -41.45650482177734 C 381.0511779785156 -39.98102951049805 382.509765625 -38.28555297851563 383.1600036621094 -36.27317047119141 C 383.7297668457031 -34.51007461547852 383.6647644042969 -32.54460144042969 382.961669921875 -30.26436233520508 C 382.3214416503906 -28.18840980529785 381.1652526855469 -25.90269470214844 379.4273681640625 -23.27626609802246 C 376.1700134277344 -18.35340881347656 371.3106994628906 -12.96221828460693 366.6116638183594 -7.748647212982178 C 361.8480834960938 -2.463647365570068 356.9223937988281 3.001352787017822 353.606201171875 8.036114692687988 C 351.8052368164063 10.77087688446045 350.6090393066406 13.16540050506592 349.9490356445313 15.3568286895752 C 349.2037963867188 17.83206748962402 349.1611938476563 20.08016204833984 349.8230895996094 22.03849601745605 C 351.4690551757813 26.9099235534668 357.39453125 30.23968696594238 367.9381103515625 32.2184944152832 C 377.5938110351563 34.0306396484375 386.9631042480469 34.91111373901367 396.5814208984375 34.91063690185547 C 406.8440551757813 34.9099235534668 417.6971435546875 33.91302108764648 430.7366638183594 31.77301979064941 C 442.6700134277344 29.8144474029541 455.3897705078125 27.09301948547363 470.1181030273438 23.94159126281738 C 487.1888122558594 20.28920936584473 506.5376281738281 16.14920997619629 529.9302368164063 12.07206726074219 C 557.0155029296875 7.351352691650391 584.3350219726563 3.630638360977173 613.4500122070313 0.697543203830719 C 640.2916870117188 -2.006266355514526 664.9716796875 -5.527456760406494 688.9006958007813 -10.06698036193848 C 710.06689453125 -14.08245658874512 728.1287841796875 -18.39055252075195 745.59619140625 -22.55698013305664 C 770.7445068359375 -28.55531311035156 794.4981079101563 -34.22079086303711 824.80712890625 -38.42697906494141 C 841.0366821289063 -40.67912292480469 857.7933349609375 -42.32698059082031 876.0349731445313 -43.46483612060547 C 896.356201171875 -44.73245620727539 918.1218872070313 -45.34864807128906 942.5757446289063 -45.34864807128906 C 967.528564453125 -45.34864807128906 990.26806640625 -44.70745849609375 1012.093811035156 -43.3881721496582 C 1031.659057617188 -42.20555114746094 1050.127807617188 -40.49507522583008 1068.555908203125 -38.15912246704102 C 1102.939086914063 -33.80031585693359 1131.609008789063 -27.97150421142578 1161.962158203125 -21.80031394958496 C 1202.19384765625 -13.62079048156738 1243.795288085938 -5.162694931030273 1302.95068359375 0.6977812647819519 C 1333.220458984375 3.696590900421143 1361.243286132813 7.510162353515625 1388.620727539063 12.35659122467041 C 1412.208129882813 16.53182983398438 1431.215698242188 20.73563766479492 1447.985717773438 24.44444847106934 C 1461.62451171875 27.46063804626465 1473.403564453125 30.06563758850098 1484.430297851563 31.93016242980957 C 1496.456420898438 33.9637336730957 1506.523315429688 34.91063690185547 1516.111450195313 34.91063690185547 C 1525.32470703125 34.91063690185547 1534.408569335938 34.02992248535156 1543.881713867188 32.21825790405273 C 1554.044555664063 30.27468681335449 1559.754028320313 27.02659034729004 1561.336669921875 22.28873443603516 C 1561.98193359375 20.3568286895752 1561.927856445313 18.13778114318848 1561.175659179688 15.69301891326904 C 1560.51025390625 13.52897167205811 1559.311645507813 11.16230487823486 1557.511962890625 8.458019256591797 C 1554.197387695313 3.477781295776367 1549.275756835938 -1.943409204483032 1544.516479492188 -7.186266422271729 C 1539.756713867188 -12.4288854598999 1534.8349609375 -17.85031318664551 1531.53076171875 -22.81721878051758 C 1529.767333984375 -25.46769523620605 1528.594970703125 -27.77650451660156 1527.946166992188 -29.87578964233398 C 1527.233154296875 -32.18317031860352 1527.169067382813 -34.17412185668945 1527.75048828125 -35.96317291259766 C 1528.429321289063 -38.05102920532227 1529.968139648438 -39.80745697021484 1532.454711914063 -41.33293151855469 C 1535.15185546875 -42.98745727539063 1538.9990234375 -44.34197998046875 1543.889770507813 -45.35912322998047 C 1550.011474609375 -46.63221740722656 1556.477416992188 -47.25126647949219 1563.657592773438 -47.25126647949219 C 1574.220703125 -47.25126647949219 1585.937377929688 -45.91936111450195 1600.53125 -43.06007766723633 C 1613.532104492188 -40.5126953125 1627.099975585938 -37.09126663208008 1641.464233398438 -33.4693603515625 C 1658.678100585938 -29.12864685058594 1676.477905273438 -24.64031410217285 1695.121459960938 -21.19555282592773 C 1716.30029296875 -17.28221893310547 1735.260498046875 -15.38007545471191 1753.085693359375 -15.38031387329102 C 1762.255981445313 -15.38055229187012 1771.330688476563 -15.8929328918457 1780.057373046875 -16.90317153930664 C 1791.295288085938 -18.20412254333496 1802.428100585938 -20.30126571655273 1813.146850585938 -23.13626670837402 C 1822.891845703125 -25.71364784240723 1832.513793945313 -28.95864677429199 1841.744995117188 -32.78126525878906 C 1857.292846679688 -39.2193603515625 1872.034790039063 -47.39340972900391 1885.560913085938 -57.07626724243164 C 1897.59716796875 -65.69245910644531 1906.423583984375 -73.93436431884766 1911.708618164063 -79.33103179931641 C 1915.623413085938 -83.32882690429688 1918.230712890625 -86.40360260009766 1919.5 -87.96414947509766 L 1919.5 68.52787780761719 L 1735.274291992188 79.17707061767578 L 1735.262817382813 79.17778015136719 L 1735.25146484375 79.17897033691406 C 1734.637329101563 79.24278259277344 1672.933837890625 85.61849212646484 1594.41552734375 91.91230773925781 C 1548.301391601563 95.60849761962891 1505.497192382813 98.55373382568359 1467.19189453125 100.6658782958984 C 1419.314331054688 103.3058776855469 1378.371704101563 104.6444473266602 1345.501708984375 104.6444473266602 C 1329.549560546875 104.6444473266602 1315.258544921875 104.3270645141602 1303.025512695313 103.7008743286133 C 1299.494506835938 103.5201644897461 1295.821899414063 103.4284973144531 1292.109741210938 103.4284973144531 C 1252.639770507813 103.4284973144531 1210.228393554688 113.5539703369141 1172.8095703125 122.4873046875 C 1158.30859375 125.9494476318359 1144.611938476563 129.2194519042969 1132.217651367188 131.6230163574219 C 1118.368774414063 134.3089752197266 1107.968994140625 135.5599212646484 1099.48876953125 135.5599212646484 C 1093.992431640625 135.5599212646484 1089.427856445313 135.0334930419922 1085.534057617188 133.9508819580078 C 1082.244750976563 133.0363464355469 1080.531860351563 131.8942108154297 1080.443115234375 130.5568237304688 C 1080.369750976563 129.4511108398438 1081.36376953125 128.0668334960938 1083.397583007813 126.4420700073242 C 1085.349243164063 124.8832550048828 1088.22265625 123.1246871948242 1092.18212890625 121.0658798217773 C 1099.619506835938 117.19873046875 1109.756713867188 112.8677825927734 1120.489013671875 108.2823028564453 C 1133.403076171875 102.7649230957031 1146.756958007813 97.0594482421875 1157.348510742188 91.36754608154297 C 1163.103515625 88.27492523193359 1167.447387695313 85.50801849365234 1170.627563476563 82.90921020507813 C 1174.293823242188 79.91349792480469 1176.325927734375 77.21349334716797 1176.840454101563 74.65444946289063 C 1177.274047851563 72.49849700927734 1176.59521484375 70.47897338867188 1174.823120117188 68.65183258056641 C 1171.822631835938 65.55825805664063 1166.716186523438 62.5401611328125 1159.645751953125 59.68135452270508 C 1153.130249023438 57.04706573486328 1144.7978515625 54.48516082763672 1134.880737304688 52.06730651855469 C 1117.335693359375 47.7896842956543 1094.7509765625 43.90944671630859 1067.753540039063 40.53421020507813 C 1039.78857421875 37.03802108764648 1013.336181640625 34.87444686889648 996.0695190429688 33.67516326904297 C 975.3783569335938 32.23825836181641 955.8821411132813 31.34587669372559 942.5802612304688 31.2270679473877 C 941.26904296875 31.21540069580078 939.8959350585938 31.20944786071777 938.498779296875 31.20944786071777 C 923.4556884765625 31.20944786071777 904.9852294921875 31.86968612670898 886.48974609375 33.06849670410156 C 864.5302124023438 34.49182891845703 843.1702270507813 36.63849639892578 824.7192993164063 39.27659225463867 C 802.5150146484375 42.45135116577148 784.3033447265625 46.32563781738281 770.5904541015625 50.79182815551758 C 762.9024047851563 53.29587554931641 756.5802612304688 56.01206588745117 751.7999877929688 58.86563873291016 C 746.6231079101563 61.95563888549805 743.1181030273438 65.29039764404297 741.3826293945313 68.77706909179688 C 740.7716674804688 70.00444793701172 740.673095703125 71.36754608154297 741.0897827148438 72.82897186279297 C 741.47021484375 74.16397094726563 742.29736328125 75.61992645263672 743.548095703125 77.15634918212891 C 745.7952270507813 79.91658782958984 749.41259765625 82.99873352050781 754.60693359375 86.57897186279297 C 764.1490478515625 93.1556396484375 777.2438354492188 100.1851654052734 789.9074096679688 106.9830169677734 C 799.6690673828125 112.223258972168 808.8892822265625 117.1727828979492 815.6826171875 121.4956359863281 C 819.3026123046875 123.7992095947266 821.9273681640625 125.7289733886719 823.7066650390625 127.3951644897461 C 825.5702514648438 129.1399230957031 826.47216796875 130.5711212158203 826.3873901367188 131.6484985351563 C 826.3135986328125 132.5896911621094 825.4149780273438 133.3675384521484 823.7166748046875 133.9604034423828 C 821.4171142578125 134.7632598876953 818.7240600585938 135.3689727783203 815.71240234375 135.7608795166016 C 812.816650390625 136.1375427246094 809.5328369140625 136.3282623291016 805.9521484375 136.3282623291016 Z" stroke="none"/>
    <path d="M 805.9556884765625 135.8282623291016 C 813.1840209960938 135.8282623291016 819.1043090820313 135.0411071777344 823.5518798828125 133.4884948730469 C 825.0457153320313 132.9668273925781 825.8319091796875 132.3346862792969 825.8890380859375 131.6092071533203 C 825.9295043945313 131.0923004150391 825.6557006835938 129.9049224853516 823.364990234375 127.7601623535156 C 821.6085815429688 126.1154022216797 819.0078735351563 124.2042083740234 815.414306640625 121.9175415039063 C 808.6366577148438 117.6046829223633 799.4242553710938 112.6594467163086 789.6709594726563 107.4237365722656 C 776.9954833984375 100.6192092895508 763.8883056640625 93.58302307128906 754.3231201171875 86.99063873291016 C 749.0890502929688 83.38325500488281 745.4378662109375 80.26968383789063 743.1602172851563 77.47206878662109 C 740.4161987304688 74.10111236572266 739.6676025390625 71.10087585449219 740.9349975585938 68.55420684814453 C 741.8478393554688 66.72039794921875 743.2371215820313 64.91968536376953 745.0640258789063 63.20182800292969 C 746.7994995117188 61.57016372680664 748.9795532226563 59.96682739257813 751.5438232421875 58.43611526489258 C 756.35595703125 55.5637321472168 762.712158203125 52.83182907104492 770.4354858398438 50.31635284423828 C 784.1759643554688 45.84135437011719 802.4157104492188 41.96039962768555 824.6485595703125 38.78158950805664 C 843.1118774414063 36.14183044433594 864.4852294921875 33.99373245239258 886.4573974609375 32.5694465637207 C 904.9633178710938 31.36992454528809 923.4454956054688 30.70944786071777 938.498779296875 30.70944786071777 C 939.89306640625 30.70944786071777 941.2676391601563 30.71540069580078 942.5845336914063 30.7270679473877 C 955.8961791992188 30.84587669372559 975.4033203125 31.73873329162598 996.1040649414063 33.17658996582031 C 1013.376892089844 34.37611389160156 1039.839233398438 36.54040145874023 1067.8154296875 40.03802108764648 C 1094.831909179688 43.4156379699707 1117.435668945313 47.29944610595703 1134.9990234375 51.58159255981445 C 1144.939819335938 54.00516128540039 1153.295288085938 56.57444763183594 1159.833129882813 59.21778106689453 C 1166.968627929688 62.10277938842773 1172.1328125 65.15968322753906 1175.18212890625 68.30373382568359 C 1177.07568359375 70.25611114501953 1177.798583984375 72.42587280273438 1177.330688476563 74.75302124023438 C 1176.792358398438 77.42992401123047 1174.703369140625 80.22444915771484 1170.944091796875 83.29635620117188 C 1167.738525390625 85.91564178466797 1163.368774414063 88.69992065429688 1157.585205078125 91.80802154541016 C 1146.973999023438 97.51039886474609 1133.609741210938 103.2203979492188 1120.685424804688 108.7420654296875 C 1109.9619140625 113.32373046875 1099.833374023438 117.6511154174805 1092.412841796875 121.5094451904297 C 1088.482421875 123.5530166625977 1085.6357421875 125.2944488525391 1083.709716796875 126.8327789306641 C 1081.220458984375 128.8213500976563 1080.907104492188 129.9987335205078 1080.94189453125 130.5237274169922 C 1081.013061523438 131.5953979492188 1082.69140625 132.6415863037109 1085.667846679688 133.4689788818359 C 1089.464477539063 134.5246887207031 1094.114501953125 135.0599212646484 1099.48876953125 135.0599212646484 C 1107.936157226563 135.0599212646484 1118.305908203125 133.8118286132813 1132.122436523438 131.1323089599609 C 1144.506225585938 128.7306365966797 1158.197875976563 125.4618301391602 1172.693359375 122.0011138916016 C 1210.139038085938 113.0613555908203 1252.580932617188 102.9284973144531 1292.109741210938 102.9284973144531 C 1295.830444335938 102.9284973144531 1299.51171875 103.0204010009766 1303.051147460938 103.2013549804688 C 1315.274780273438 103.8270645141602 1329.55712890625 104.1444473266602 1345.501708984375 104.1444473266602 C 1378.362426757813 104.1444473266602 1419.295288085938 102.8061141967773 1467.1630859375 100.1668319702148 C 1505.4638671875 98.05492401123047 1548.263549804688 95.10992431640625 1594.373291015625 91.41397094726563 C 1672.885986328125 85.12063598632813 1734.5859375 78.74539947509766 1735.199951171875 78.68158721923828 L 1735.22265625 78.67945098876953 L 1735.245483398438 78.67801666259766 L 1919 68.05606842041016 L 1919 -86.57083892822266 C 1917.5634765625 -84.86119842529297 1915.26123046875 -82.24441528320313 1912.065673828125 -78.98126983642578 C 1906.766723632813 -73.5703125 1897.917602539063 -65.30698394775391 1885.851928710938 -56.66960144042969 C 1872.294799804688 -46.964599609375 1857.519287109375 -38.77198028564453 1841.936157226563 -32.31912231445313 C 1832.6845703125 -28.4881706237793 1823.041381835938 -25.23602867126465 1813.274780273438 -22.65293312072754 C 1802.533081054688 -19.81174278259277 1791.37646484375 -17.71007537841797 1780.114990234375 -16.40650367736816 C 1771.369995117188 -15.39412307739258 1762.276000976563 -14.88055229187012 1753.085693359375 -14.88031387329102 C 1735.229736328125 -14.88007545471191 1716.23974609375 -16.78483772277832 1695.03076171875 -20.70388603210449 C 1676.371459960938 -24.15150451660156 1658.563842773438 -28.64198112487793 1641.342407226563 -32.98435974121094 C 1626.984497070313 -36.60483932495117 1613.423095703125 -40.02460098266602 1600.43505859375 -42.56936264038086 C 1585.873779296875 -45.42245864868164 1574.187622070313 -46.75126647949219 1563.657592773438 -46.75126647949219 C 1556.512817382813 -46.75126647949219 1550.079956054688 -46.13579177856445 1543.991455078125 -44.86959838867188 C 1539.157592773438 -43.86436080932617 1535.364013671875 -42.53102874755859 1532.716186523438 -40.90674209594727 C 1530.335205078125 -39.44626617431641 1528.866455078125 -37.77840805053711 1528.226196289063 -35.80864715576172 C 1525.84814453125 -28.4936466217041 1535.526611328125 -17.83245658874512 1544.886474609375 -7.522218704223633 C 1549.658325195313 -2.265790224075317 1554.592895507813 3.169447898864746 1557.928100585938 8.180876731872559 C 1559.755004882813 10.92611503601074 1560.973754882813 13.33516216278076 1561.65380859375 15.54611492156982 C 1562.436889648438 18.09254264831543 1562.48974609375 20.41444778442383 1561.810913085938 22.44706726074219 C 1560.165893554688 27.37182807922363 1554.332153320313 30.72873306274414 1543.975708007813 32.70920944213867 C 1534.470458984375 34.52706527709961 1525.35595703125 35.41063690185547 1516.111450195313 35.41063690185547 C 1506.494750976563 35.41063690185547 1496.401489257813 34.46135330200195 1484.34716796875 32.42325592041016 C 1473.307861328125 30.55659103393555 1461.523315429688 27.95039939880371 1447.877807617188 24.93254280090332 C 1431.112670898438 21.22492408752441 1412.110473632813 17.02230453491211 1388.533569335938 12.84873390197754 C 1361.168823242188 8.00468635559082 1333.158325195313 4.192781448364258 1302.901489257813 1.195400357246399 C 1243.720458984375 -4.667695045471191 1202.1064453125 -13.12817096710205 1161.862670898438 -21.3103141784668 C 1131.518798828125 -27.47959899902344 1102.85791015625 -33.30674362182617 1068.493041992188 -37.66316986083984 C 1050.075927734375 -39.99769592285156 1031.617797851563 -41.70721817016602 1012.063781738281 -42.88912200927734 C 990.2481079101563 -44.20769500732422 967.5185546875 -44.84864807128906 942.5757446289063 -44.84864807128906 C 918.1323852539063 -44.84864807128906 896.3768920898438 -44.23269653320313 876.066162109375 -42.96578979492188 C 857.837158203125 -41.82864761352539 841.0928344726563 -40.18198013305664 824.8759765625 -37.93150329589844 C 794.5906982421875 -33.72888565063477 770.8485717773438 -28.0660285949707 745.712158203125 -22.07055282592773 C 728.2392578125 -17.90293312072754 710.1716918945313 -13.59340953826904 688.9940185546875 -9.575790405273438 C 665.0504760742188 -5.033409118652344 640.356201171875 -1.510313987731934 613.500244140625 1.195162296295166 C 584.3971557617188 4.126828670501709 557.0890502929688 7.845876693725586 530.0156860351563 12.5646858215332 C 506.6323852539063 16.64016151428223 487.288818359375 20.77897262573242 470.2221374511719 24.43063926696777 C 455.4878540039063 27.5832576751709 442.7626342773438 30.30587577819824 430.817626953125 32.26635360717773 C 417.75048828125 34.4108772277832 406.8719177246094 35.4099235534668 396.5814208984375 35.41063690185547 C 386.9316711425781 35.41111373901367 377.5321350097656 34.52778244018555 367.845703125 32.70992279052734 C 357.1087951660156 30.69492340087891 351.0585632324219 27.25658988952637 349.3492736816406 22.19849586486816 C 348.65380859375 20.13992500305176 348.6942749023438 17.78944778442383 349.4702453613281 15.21278095245361 C 350.144287109375 12.97420978546143 351.3607177734375 10.53682899475098 353.1888122558594 7.761114597320557 C 356.5254821777344 2.694685935974121 361.4640502929688 -2.784599781036377 366.240234375 -8.083409309387207 C 375.4695129394531 -18.32317161560059 385.0133361816406 -28.9115047454834 382.6842956542969 -36.11959838867188 C 382.0716552734375 -38.01555252075195 380.6816711425781 -39.62269592285156 378.4349975585938 -41.03293228149414 C 375.9383239746094 -42.60007476806641 372.3666687011719 -43.89150619506836 367.8197631835938 -44.87102890014648 C 361.9466552734375 -46.13626480102539 355.7535705566406 -46.75126647949219 348.8861999511719 -46.75126647949219 C 338.7947692871094 -46.75126647949219 327.6133422851563 -45.43102645874023 313.6983337402344 -42.59650421142578 C 301.279296875 -40.06674194335938 288.3047485351563 -36.66293334960938 274.5683288574219 -33.05936050415039 C 257.9645385742188 -28.70340919494629 240.7954711914063 -24.19912338256836 222.7238159179688 -20.73555183410645 C 202.1728515625 -16.79650497436523 183.7061920166016 -14.88126659393311 166.2685699462891 -14.88031387329102 C 157.3223876953125 -14.88007545471191 148.4447631835938 -15.39364719390869 139.8823852539063 -16.40674209594727 C 128.8647613525391 -17.71055221557617 117.9054794311523 -19.81245613098145 107.3090438842773 -22.65364646911621 C 97.67571258544922 -25.23698043823242 88.12595367431641 -28.4891242980957 78.92500305175781 -32.32007598876953 C 63.42881011962891 -38.77174377441406 48.62333297729492 -46.96317291259766 34.91928482055664 -56.66674423217773 C 22.72428512573242 -65.30150604248047 13.67523765563965 -73.56221771240234 8.231666564941406 -78.97150421142578 C 4.888496398925781 -82.29354095458984 2.482247114181519 -84.94518280029297 1 -86.65079498291016 L 1 68.05568695068359 C 7.28107213973999 68.41614532470703 47.18653106689453 70.70624542236328 186.1038055419922 78.67801666259766 C 238.5045166015625 81.68492126464844 287.9592895507813 85.996826171875 335.7857055664063 90.16658782958984 C 415.9237976074219 97.15349578857422 491.6173706054688 103.7527847290039 573.1940307617188 103.7527847290039 C 586.6812133789063 103.7527847290039 600.1990356445313 103.5670700073242 613.3721313476563 103.2006378173828 C 614.3297729492188 103.1739730834961 615.326416015625 103.160400390625 616.3340454101563 103.160400390625 C 622.4164428710938 103.160400390625 629.2383422851563 103.6323013305664 637.1897583007813 104.6030197143555 C 644.2526245117188 105.4651641845703 652.048828125 106.7037353515625 661.0245361328125 108.3896865844727 C 677.6683349609375 111.51611328125 695.8628540039063 115.7306365966797 713.4583129882813 119.8065872192383 C 730.5266723632813 123.7601623535156 748.1762084960938 127.8484954833984 764.0504760742188 130.8477783203125 C 772.5802612304688 132.4594421386719 779.9547729492188 133.6418304443359 786.595703125 134.4627838134766 C 794.0254516601563 135.38134765625 800.3571166992188 135.8280181884766 805.9542846679688 135.8282623291016 L 805.9556884765625 135.8282623291016 M 805.9520263671875 136.8282318115234 C 758.506103515625 136.8265075683594 666.048583984375 104.1603546142578 616.3341674804688 104.1603546142578 C 615.3408813476563 104.1603546142578 614.3584594726563 104.1735000610352 613.4000244140625 104.2001647949219 C 599.82470703125 104.5777587890625 586.4485473632813 104.7526931762695 573.194091796875 104.7526931762695 C 442.347412109375 104.7526931762695 325.2912902832031 87.66693115234375 186.0464324951172 79.67635345458984 C 32.69643020629883 70.87635040283203 0 68.99992370605469 0 68.99992370605469 L 0 -89.39984130859375 C 0 -89.39984130859375 47.99238204956055 -28.28769493103027 140 -17.39983749389648 C 148.884033203125 -16.34853172302246 157.6349182128906 -15.87999629974365 166.2685699462891 -15.88043117523193 C 237.4388885498047 -15.88401985168457 299.8278503417969 -47.75118637084961 348.8862609863281 -47.75118637084961 C 355.5108947753906 -47.75118637084961 361.9028930664063 -47.16871643066406 368.0302429199219 -45.84864807128906 C 425.0378723144531 -33.56698226928711 306.6878662109375 20.21492385864258 368.0302429199219 31.7270679473877 C 377.9706726074219 33.59259033203125 387.2965393066406 34.41115951538086 396.5813903808594 34.41062545776367 C 444.5933532714844 34.40785980224609 491.2749328613281 12.50288867950439 613.4000244140625 0.2001622319221497 C 759.1423950195313 -14.48150444030762 770.1757202148438 -45.84864807128906 942.5757446289063 -45.84864807128906 C 1114.975708007813 -45.84864807128906 1154.803100585938 -14.48150444030762 1303 0.2001622319221497 C 1427.19091796875 12.50378513336182 1470.05615234375 34.41105270385742 1516.111328125 34.41062545776367 C 1525.013793945313 34.41054153442383 1534.036743164063 33.59188842773438 1543.787841796875 31.7270679473877 C 1603.984741210938 20.21492385864258 1484.734741210938 -33.56698226928711 1543.787841796875 -45.84864807128906 C 1550.138671875 -47.16946792602539 1556.766723632813 -47.75118637084961 1563.657592773438 -47.75118637084961 C 1614.65869140625 -47.75118637084961 1680.002075195313 -15.87913227081299 1753.085693359375 -15.88043117523193 C 1761.945922851563 -15.88058853149414 1770.924194335938 -16.34919738769531 1780 -17.39983749389648 C 1874.053100585938 -28.28769493103027 1920 -89.39984130859375 1920 -89.39984130859375 L 1920 68.99992370605469 L 1735.303100585938 79.67635345458984 C 1735.303100585938 79.67635345458984 1489.64990234375 105.1444702148438 1345.501586914063 105.1444702148438 C 1330.030639648438 105.1444702148438 1315.70263671875 104.8503570556641 1303 104.2001647949219 C 1299.399047851563 104.0158386230469 1295.771362304688 103.9284210205078 1292.109741210938 103.9284210205078 C 1222.0009765625 103.9284210205078 1142.024047851563 136.059814453125 1099.48876953125 136.059814453125 C 1094.181030273438 136.059814453125 1089.449829101563 135.5586090087891 1085.400024414063 134.4325408935547 C 1050.516845703125 124.7332611083984 1194.968139648438 90.13945007324219 1174.464233398438 68.99992370605469 C 1149.900024414063 43.67373275756836 991.59716796875 32.1646842956543 942.5757446289063 31.7270679473877 C 941.2645874023438 31.71536445617676 939.9081420898438 31.70945167541504 938.4988403320313 31.70945167541504 C 883.4525756835938 31.70945167541504 755.8779907226563 40.7781867980957 741.8302612304688 68.99992370605469 C 732.9650268554688 86.81087493896484 846.6071166992188 126.4987335205078 823.8814086914063 134.4325408935547 C 819.0989990234375 136.1021728515625 813.0279541015625 136.8284912109375 805.9520263671875 136.8282318115234 Z" stroke="none" fill="#707070"/>
  </g>
</svg>
